<svg width="90" height="25" viewBox="0 0 90 25" fill="none" xmlns="http://www.w3.org/2000/svg">
<path d="M77.6519 17.3059V24.7683H74.0677V7.77049H77.6519V9.57593C78.5746 8.84038 79.016 8.55953 80.0324 8.05134C80.9685 7.58326 82.132 7.51639 83.3089 7.51639C84.8201 7.51639 86.6256 8.50604 87.7489 9.73641C88.9124 11.0203 89.7282 12.906 89.7282 15.1126V24.7683H86.1441V15.4336C85.8365 11.8896 83.4159 10.9935 81.8913 10.9935C80.6609 10.9935 79.0695 11.9431 78.6281 12.7455C78.0397 13.8287 77.692 14.7783 77.6385 17.2925L77.6519 17.3059Z" fill="#1F2121"/>
<path d="M17.7515 15.126C17.7515 12.6652 16.9357 10.7394 15.3175 9.34858C13.6993 7.94435 11.72 7.24892 9.40637 7.24892C7.09274 7.24892 5.07333 8.03796 3.37489 9.61605C1.66307 11.1941 0.807159 13.3205 0.807159 16.0086C0.807159 16.5569 0.847275 17.0919 0.927517 17.6001C1.20836 19.566 2.01078 21.1708 3.37489 22.4413C5.08671 24.0194 7.09274 24.8085 9.40637 24.8085C11.72 24.8085 13.6993 24.113 15.3175 22.7088C16.4141 21.7593 17.1363 20.569 17.484 19.1381H13.833C13.6057 19.6997 13.2713 20.1812 12.8166 20.569C11.9206 21.3313 10.8106 21.7192 9.5 21.7192C8.18939 21.7192 7.0125 21.3179 5.95598 20.5155C4.99308 19.78 4.48488 18.8037 4.40464 17.5867H17.7381V15.126H17.7515ZM4.39127 14.7783C4.39127 13.4141 4.91284 12.3309 5.95598 11.5285C6.99912 10.7261 8.17601 10.3249 9.5 10.3249C10.824 10.3249 11.9206 10.7127 12.8166 11.475C13.7127 12.2373 14.1674 13.3473 14.1674 14.7783H4.40464H4.39127Z" fill="#1F2121"/>
<path d="M43.9772 24.7816C41.61 24.7816 39.5639 23.9792 37.8654 22.3609C36.1536 20.7427 35.2977 18.6431 35.2977 16.0352C35.2977 13.4274 36.1937 11.3144 37.9724 9.68278C39.7511 8.0512 41.931 7.2354 44.4854 7.2354C47.0397 7.2354 49.2196 8.11806 50.9849 9.89675L48.8719 12.4912C47.4008 11.2074 45.9163 10.5654 44.4185 10.5654C42.9207 10.5654 41.6234 11.0603 40.5268 12.0499C39.4301 13.0395 38.8818 14.3234 38.8818 15.8881C38.8818 17.4528 39.4301 18.7902 40.5134 19.8735C41.5967 20.9567 42.9474 21.505 44.5389 21.505C46.1303 21.505 47.6282 20.7829 49.0324 19.3251L51.1454 21.6254C49.0725 23.7117 46.6786 24.7682 43.9772 24.7682V24.7816Z" fill="#1F2121"/>
<path d="M68.4776 22.2273C66.7657 23.9258 64.6394 24.7683 62.0716 24.7683C59.5039 24.7683 57.3775 23.9258 55.6657 22.2273C53.9538 20.5289 53.0979 18.456 53.0979 15.9953C53.0979 13.5345 53.9538 11.4616 55.6657 9.76316C57.3775 8.06471 59.5039 7.22218 62.0716 7.22218C64.6394 7.22218 66.7657 8.06471 68.4776 9.76316C70.1894 11.4616 71.0453 13.5345 71.0453 15.9953C71.0453 18.456 70.1894 20.5289 68.4776 22.2273ZM58.22 20.0207C59.2364 21.0505 60.5203 21.572 62.085 21.572C63.6497 21.572 64.9336 21.0505 65.95 20.0207C66.9664 18.9909 67.4745 17.6402 67.4745 15.9953C67.4745 14.3503 66.9664 13.0129 65.95 11.9698C64.9336 10.94 63.6497 10.4185 62.085 10.4185C60.5203 10.4185 59.2364 10.94 58.22 11.9698C57.2036 12.9996 56.6954 14.3503 56.6954 15.9953C56.6954 17.6402 57.2036 18.9776 58.22 20.0207Z" fill="#1F2121"/>
<path d="M22.2852 4.29335C21.8706 3.87877 21.6566 3.37058 21.6566 2.79551C21.6566 2.22045 21.8706 1.72562 22.2852 1.29767C22.6998 0.883086 23.2079 0.669109 23.783 0.669109C24.3581 0.669109 24.8529 0.883086 25.2808 1.29767C25.6954 1.71225 25.9094 2.22045 25.9094 2.79551C25.9094 3.37058 25.6954 3.8654 25.2808 4.29335C24.8663 4.72131 24.3581 4.92191 23.783 4.92191C23.2079 4.92191 22.7131 4.70793 22.2852 4.29335Z" fill="#1F2121"/>
<path d="M27.862 4.29335C27.4474 3.87877 27.2334 3.37058 27.2334 2.79551C27.2334 2.22045 27.4474 1.72562 27.862 1.29767C28.2765 0.883086 28.7847 0.669109 29.3598 0.669109C29.9349 0.669109 30.4297 0.883086 30.8577 1.29767C31.2722 1.71225 31.4862 2.22045 31.4862 2.79551C31.4862 3.37058 31.2722 3.8654 30.8577 4.29335C30.4431 4.72131 29.9349 4.92191 29.3598 4.92191C28.7847 4.92191 28.2899 4.70793 27.862 4.29335Z" fill="#35928E"/>
<path d="M30.8978 10.9267V6.54012H27.8084V13.0932L30.8978 10.9267Z" fill="#35928E"/>
<path d="M27.8218 15.5004L27.8084 15.4871V24.8352H30.8978V13.3339L27.8218 15.5004Z" fill="#35928E"/>
<path d="M25.321 13.1467V6.54012H22.2317V10.9802L25.321 13.1467Z" fill="#1F2121"/>
<path d="M22.2317 13.3339V24.8352H25.321V15.5004L22.2317 13.3339Z" fill="#1F2121"/>
</svg>
